<svg width="136" height="32" viewBox="0 0 136 32" fill="none" xmlns="http://www.w3.org/2000/svg">
<g clip-path="url(#clip0_220_3269)">
<g clip-path="url(#clip1_220_3269)">
<path d="M59.3427 12.6797V14.1027C59.3427 16.7378 58.4995 18.8723 56.813 20.506C55.1265 22.1398 52.9482 22.9567 50.2779 22.9567C47.432 22.9567 45.0692 22.0344 43.1895 20.1898C41.3274 18.3277 40.3962 16.0615 40.3962 13.3912C40.3962 10.7034 41.3185 8.42843 43.1631 6.56629C45.0252 4.70415 47.3266 3.77307 50.0671 3.77307C51.7888 3.77307 53.361 4.16834 54.7839 4.95887C56.2069 5.73184 57.3137 6.76831 58.1042 8.0683L54.9948 9.86018C54.5556 9.10479 53.888 8.48992 52.9921 8.0156C52.1136 7.54128 51.13 7.30412 50.0407 7.30412C48.2841 7.30412 46.8348 7.88384 45.6928 9.04329C44.5686 10.1852 44.0063 11.6345 44.0063 13.3912C44.0063 15.1304 44.5772 16.5709 45.7192 17.7128C46.8786 18.8371 48.407 19.3993 50.3043 19.3993C51.7097 19.3993 52.8692 19.0919 53.7826 18.477C54.7137 17.8446 55.3462 16.9838 55.6799 15.8946H50.0935V12.6797H59.3427ZM65.3963 17.3966C65.8531 19.0479 67.0916 19.8736 69.1118 19.8736C70.4119 19.8736 71.3955 19.4345 72.0631 18.556L74.8036 20.1371C73.5036 22.0169 71.5888 22.9567 69.0591 22.9567C66.8808 22.9567 65.1328 22.2979 63.8152 20.9803C62.4977 19.6628 61.8389 18.0027 61.8389 16C61.8389 14.0149 62.4888 12.3635 63.7889 11.046C65.0889 9.71086 66.7577 9.04329 68.7956 9.04329C70.7281 9.04329 72.3178 9.71086 73.5651 11.046C74.83 12.3811 75.4624 14.0324 75.4624 16C75.4624 16.4392 75.4186 16.9047 75.3307 17.3966H65.3963ZM65.3436 14.7615H72.0631C71.8698 13.8655 71.4659 13.198 70.851 12.7588C70.2537 12.3196 69.5686 12.1 68.7956 12.1C67.8821 12.1 67.1266 12.3372 66.5294 12.8115C65.9322 13.2683 65.5369 13.9182 65.3436 14.7615ZM85.914 9.04329C87.3545 9.04329 88.5403 9.5264 89.4714 10.4926C90.4201 11.4588 90.8944 12.7939 90.8944 14.498V22.5878H87.4951V14.9196C87.4951 14.0412 87.2579 13.3737 86.7836 12.9169C86.3093 12.4426 85.6769 12.2054 84.8863 12.2054C84.0079 12.2054 83.3053 12.4777 82.7782 13.0223C82.2512 13.5669 81.9877 14.3838 81.9877 15.473V22.5878H78.5884V9.41221H81.9877V10.8879C82.8132 9.65816 84.1221 9.04329 85.914 9.04329ZM97.4219 17.3966C97.8787 19.0479 99.1173 19.8736 101.137 19.8736C102.437 19.8736 103.421 19.4345 104.089 18.556L106.829 20.1371C105.529 22.0169 103.614 22.9567 101.085 22.9567C98.9064 22.9567 97.1584 22.2979 95.8409 20.9803C94.5233 19.6628 93.8645 18.0027 93.8645 16C93.8645 14.0149 94.5146 12.3635 95.8145 11.046C97.1146 9.71086 98.7835 9.04329 100.821 9.04329C102.754 9.04329 104.344 9.71086 105.591 11.046C106.856 12.3811 107.488 14.0324 107.488 16C107.488 16.4392 107.444 16.9047 107.356 17.3966H97.4219ZM97.3692 14.7615H104.089C103.896 13.8655 103.492 13.198 102.877 12.7588C102.279 12.3196 101.594 12.1 100.821 12.1C99.9078 12.1 99.1524 12.3372 98.555 12.8115C97.9578 13.2683 97.5625 13.9182 97.3692 14.7615ZM113.235 13.1541C113.235 13.5054 113.464 13.7953 113.92 14.0237C114.395 14.2345 114.966 14.4277 115.633 14.6034C116.301 14.7615 116.968 14.9723 117.636 15.2358C118.303 15.4818 118.866 15.9034 119.322 16.5007C119.797 17.0979 120.034 17.8446 120.034 18.7405C120.034 20.0933 119.524 21.1385 118.505 21.8763C117.504 22.5966 116.248 22.9567 114.737 22.9567C112.032 22.9567 110.187 21.9115 109.204 19.8209L112.155 18.1608C112.541 19.3027 113.402 19.8736 114.737 19.8736C115.949 19.8736 116.555 19.4958 116.555 18.7405C116.555 18.3891 116.318 18.1081 115.844 17.8973C115.387 17.6689 114.825 17.4669 114.158 17.2912C113.49 17.1155 112.822 16.8959 112.155 16.6324C111.487 16.3689 110.916 15.9561 110.442 15.3939C109.985 14.8142 109.757 14.0939 109.757 13.2331C109.757 11.9331 110.231 10.9142 111.18 10.1764C112.146 9.421 113.341 9.04329 114.764 9.04329C115.835 9.04329 116.81 9.28924 117.689 9.78112C118.567 10.2554 119.261 10.9406 119.77 11.8365L116.872 13.4176C116.45 12.5216 115.747 12.0737 114.764 12.0737C114.324 12.0737 113.955 12.1703 113.657 12.3635C113.376 12.5568 113.235 12.8203 113.235 13.1541ZM131.023 9.41221H134.659L129.863 22.5878C129.178 24.485 128.265 25.8553 127.123 26.6985C125.999 27.5593 124.593 27.9459 122.907 27.858V24.6959C123.82 24.7134 124.54 24.5202 125.067 24.1161C125.612 23.712 126.042 23.0621 126.359 22.1661L120.957 9.41221H124.672L128.098 18.2662L131.023 9.41221Z" fill="black"/>
<mask id="mask0_220_3269" style="mask-type:luminance" maskUnits="userSpaceOnUse" x="0" y="5" width="29" height="16">
<path d="M28.2333 5.64777H0V20.7055H28.2333V5.64777Z" fill="white"/>
</mask>
<g mask="url(#mask0_220_3269)">
<path d="M2.50867 11.3829C5.17512 9.09313 7.28148 7.28285 12.9959 10.5118C15.7411 12.0627 17.9555 12.6481 19.7991 12.6478C23.0269 12.6478 25.1179 10.8521 26.9267 9.29794C27.5717 8.74426 27.6547 7.76114 27.1119 7.10215C26.5692 6.44317 25.6067 6.35802 24.9616 6.91261C22.2955 9.20332 20.1895 11.013 14.4732 7.78342C6.92222 3.51789 3.38558 6.5564 0.54363 8.99729C-0.101007 9.55128 -0.184333 10.5344 0.358357 11.1934C0.900742 11.8521 1.86342 11.9372 2.50867 11.3829ZM24.9616 14.7062C22.2955 16.9963 20.1895 18.8063 14.4732 15.577C6.92222 11.3112 3.38558 14.3497 0.54363 16.7909C-0.101007 17.3452 -0.184333 18.3283 0.358357 18.9864C0.900742 19.6454 1.86373 19.7305 2.50867 19.1763C5.17512 16.8862 7.28148 15.0762 12.9959 18.3048C15.7411 19.8556 17.9555 20.4414 19.7991 20.4414C23.0269 20.4414 25.1179 18.6455 26.9267 17.0916C27.5717 16.5373 27.6547 15.5541 27.1119 14.8958C26.5696 14.2362 25.6069 14.1516 24.9616 14.7062Z" fill="url(#paint0_linear_220_3269)"/>
</g>
</g>
</g>
<defs>
<linearGradient id="paint0_linear_220_3269" x1="6.10339e-05" y1="12.8975" x2="27.4703" y2="13.1916" gradientUnits="userSpaceOnUse">
<stop stop-color="#EB7208"/>
<stop offset="0.33" stop-color="#E94783"/>
<stop offset="0.685" stop-color="#AD68FF"/>
<stop offset="0.92" stop-color="#3388FF"/>
<stop offset="1" stop-color="#0D92FF"/>
</linearGradient>
<clipPath id="clip0_220_3269">
<rect width="135.52" height="32" fill="white"/>
</clipPath>
<clipPath id="clip1_220_3269">
<rect width="135.52" height="32" fill="white"/>
</clipPath>
</defs>
</svg>
